<svg width="375" height="250" viewBox="0 0 375 250" fill="none" xmlns="http://www.w3.org/2000/svg">
<g opacity="0.5" filter="url(#filter0_f_0_2340)">
<g filter="url(#filter1_f_0_2340)">
<path d="M132.639 167.034C70.9672 167.034 1.72131 129.069 -21 152.338V257.662H441V98.4511C423.689 91.9194 374.134 80.5705 314.41 87.4288C239.754 96.0017 194.311 167.034 132.639 167.034Z" fill="#FF3D00"/>
</g>
<g filter="url(#filter2_f_0_2340)">
<path d="M132.639 195.466C70.9672 195.466 1.72131 157.5 -21 180.77V286.094H441V126.883C423.689 120.351 374.134 109.002 314.41 115.86C239.754 124.433 194.311 195.466 132.639 195.466Z" fill="#F9784E"/>
</g>
<g filter="url(#filter3_f_0_2340)">
<path d="M132.639 209.681C70.9672 209.681 1.72131 171.715 -21 194.984V300.309H441V141.097C423.689 134.566 374.134 123.217 314.41 130.075C239.754 138.648 194.311 209.681 132.639 209.681Z" fill="#F66131"/>
</g>
</g>
<defs>
<filter id="filter0_f_0_2340" x="-106.292" y="0.00847626" width="632.585" height="385.592" filterUnits="userSpaceOnUse" color-interpolation-filters="sRGB">
<feFlood flood-opacity="0" result="BackgroundImageFix"/>
<feBlend mode="normal" in="SourceGraphic" in2="BackgroundImageFix" result="shape"/>
<feGaussianBlur stdDeviation="42.6462" result="effect1_foregroundBlur_0_2340"/>
</filter>
<filter id="filter1_f_0_2340" x="-38.7692" y="67.5315" width="497.538" height="207.9" filterUnits="userSpaceOnUse" color-interpolation-filters="sRGB">
<feFlood flood-opacity="0" result="BackgroundImageFix"/>
<feBlend mode="normal" in="SourceGraphic" in2="BackgroundImageFix" result="shape"/>
<feGaussianBlur stdDeviation="8.88462" result="effect1_foregroundBlur_0_2340"/>
</filter>
<filter id="filter2_f_0_2340" x="-38.7692" y="95.9632" width="497.538" height="207.9" filterUnits="userSpaceOnUse" color-interpolation-filters="sRGB">
<feFlood flood-opacity="0" result="BackgroundImageFix"/>
<feBlend mode="normal" in="SourceGraphic" in2="BackgroundImageFix" result="shape"/>
<feGaussianBlur stdDeviation="8.88462" result="effect1_foregroundBlur_0_2340"/>
</filter>
<filter id="filter3_f_0_2340" x="-38.7692" y="110.178" width="497.538" height="207.9" filterUnits="userSpaceOnUse" color-interpolation-filters="sRGB">
<feFlood flood-opacity="0" result="BackgroundImageFix"/>
<feBlend mode="normal" in="SourceGraphic" in2="BackgroundImageFix" result="shape"/>
<feGaussianBlur stdDeviation="8.88462" result="effect1_foregroundBlur_0_2340"/>
</filter>
</defs>
</svg>
