<svg width="14" height="15" viewBox="0 0 14 15" fill="none" xmlns="http://www.w3.org/2000/svg">
<path fill-rule="evenodd" clip-rule="evenodd" d="M4.1621 1.26547C4.12899 1.02142 3.9198 0.833313 3.66667 0.833313C3.39052 0.833313 3.16667 1.05717 3.16667 1.33331V1.49998H3L2.86723 1.50345C1.54824 1.57246 0.5 2.66381 0.5 3.99998V5.33331V9.33331L0.503465 9.46609C0.572484 10.7851 1.66383 11.8333 3 11.8333H5L5.06785 11.8287C5.3119 11.7956 5.5 11.5864 5.5 11.3333C5.5 11.0572 5.27614 10.8333 5 10.8333H3L2.8973 10.8299C2.11678 10.7771 1.5 10.1272 1.5 9.33331V5.83331H11.1667V7.33331L11.1712 7.40116C11.2043 7.64521 11.4135 7.83331 11.6667 7.83331C11.9428 7.83331 12.1667 7.60946 12.1667 7.33331V5.33331V3.99998L12.1632 3.86721C12.0942 2.54822 11.0028 1.49998 9.66667 1.49998H9.5V1.33331L9.49544 1.26547C9.46233 1.02142 9.25313 0.833313 9 0.833313C8.72386 0.833313 8.5 1.05717 8.5 1.33331V1.49998H4.16667V1.33331L4.1621 1.26547ZM3.16667 2.49998V2.66665L3.17123 2.73449C3.20434 2.97854 3.41354 3.16665 3.66667 3.16665C3.94281 3.16665 4.16667 2.94279 4.16667 2.66665V2.49998H8.5V2.66665L8.50456 2.73449C8.53767 2.97854 8.74687 3.16665 9 3.16665C9.27614 3.16665 9.5 2.94279 9.5 2.66665V2.49998H9.66667L9.76937 2.50344C10.5499 2.55622 11.1667 3.20607 11.1667 3.99998V4.83331H1.5V3.99998L1.50346 3.89728C1.55624 3.11676 2.20609 2.49998 3 2.49998H3.16667ZM11.9389 8.70563L11.8202 8.70042L8.2 8.70001C7.26112 8.70001 6.5 9.46113 6.5 10.4V11.2V12.8C6.5 13.7389 7.26112 14.5 8.2 14.5H11.8C12.6871 14.5 13.423 13.8182 13.4944 12.9389L13.4996 12.8202L13.4999 11.2118L13.5 11.2L13.4999 11.1884L13.5 10.4C13.5 9.51294 12.8182 8.77701 11.9389 8.70563ZM7.5 12.8V11.7H12.5V12.8L12.4964 12.8782C12.4683 13.2191 12.1651 13.5 11.8 13.5H8.2C7.8134 13.5 7.5 13.1866 7.5 12.8ZM7.5 10.7H12.5V10.4C12.5 10.0349 12.2191 9.73167 11.8782 9.70358L11.7798 9.6996L8.2 9.70001C7.8134 9.70001 7.5 10.0134 7.5 10.4V10.7Z" fill="#E13915"/>
</svg>
