<svg width="18" height="18" viewBox="0 0 18 18" fill="none" xmlns="http://www.w3.org/2000/svg">
<path fill-rule="evenodd" clip-rule="evenodd" d="M3 1.6875H6C6.72466 1.6875 7.3125 2.27534 7.3125 3V6C7.3125 6.72466 6.72466 7.3125 6 7.3125H3C2.27534 7.3125 1.6875 6.72466 1.6875 6V3C1.6875 2.27534 2.27534 1.6875 3 1.6875ZM6 2.8125H3C2.89666 2.8125 2.8125 2.89666 2.8125 3V6C2.8125 6.10334 2.89666 6.1875 3 6.1875H6C6.10334 6.1875 6.1875 6.10334 6.1875 6V3C6.1875 2.89666 6.10334 2.8125 6 2.8125Z" fill="white"/>
<path fill-rule="evenodd" clip-rule="evenodd" d="M3 10.6875H6C6.72466 10.6875 7.3125 11.2753 7.3125 12V15C7.3125 15.7247 6.72466 16.3125 6 16.3125H3C2.27534 16.3125 1.6875 15.7247 1.6875 15V12C1.6875 11.2753 2.27534 10.6875 3 10.6875ZM6 11.8125H3C2.89666 11.8125 2.8125 11.8967 2.8125 12V15C2.8125 15.1033 2.89666 15.1875 3 15.1875H6C6.10334 15.1875 6.1875 15.1033 6.1875 15V12C6.1875 11.8967 6.10334 11.8125 6 11.8125Z" fill="white"/>
<path fill-rule="evenodd" clip-rule="evenodd" d="M12 1.6875H15C15.7247 1.6875 16.3125 2.27534 16.3125 3V6C16.3125 6.72466 15.7247 7.3125 15 7.3125H12C11.2753 7.3125 10.6875 6.72466 10.6875 6V3C10.6875 2.27534 11.2753 1.6875 12 1.6875ZM15 2.8125H12C11.8967 2.8125 11.8125 2.89666 11.8125 3V6C11.8125 6.10334 11.8967 6.1875 12 6.1875H15C15.1033 6.1875 15.1875 6.10334 15.1875 6V3C15.1875 2.89666 15.1033 2.8125 15 2.8125Z" fill="white"/>
<path d="M6.75 8.4375C7.06066 8.4375 7.3125 8.68934 7.3125 9C7.3125 9.28477 7.10088 9.52012 6.82633 9.55737L6.75 9.5625H5.25C4.93934 9.5625 4.6875 9.31066 4.6875 9C4.6875 8.71523 4.89912 8.47988 5.17367 8.44263L5.25 8.4375H6.75Z" fill="white"/>
<path d="M9 1.6875C9.28477 1.6875 9.52012 1.89912 9.55737 2.17367L9.5625 2.25V3.75C9.5625 4.06066 9.31066 4.3125 9 4.3125C8.71523 4.3125 8.47988 4.10088 8.44263 3.82633L8.4375 3.75V2.25C8.4375 1.93934 8.68934 1.6875 9 1.6875Z" fill="white"/>
<path d="M9 6.1875C9.28477 6.1875 9.52012 6.39912 9.55737 6.67367L9.5625 6.75V8.25C9.5625 8.33858 9.62433 8.41306 9.70708 8.43254L9.75 8.4375H12C12.3107 8.4375 12.5625 8.68934 12.5625 9C12.5625 9.28477 12.3509 9.52012 12.0763 9.55737L12 9.5625H9.75C9.06157 9.5625 8.49663 9.03197 8.44185 8.35762L8.4375 8.25V6.75C8.4375 6.43934 8.68934 6.1875 9 6.1875Z" fill="white"/>
<path d="M3 8.4375C3.31066 8.4375 3.5625 8.68934 3.5625 9C3.5625 9.28477 3.35088 9.52012 3.07633 9.55737L3 9.5625H2.25C1.93934 9.5625 1.6875 9.31066 1.6875 9C1.6875 8.71523 1.89912 8.47988 2.17367 8.44263L2.25 8.4375H3Z" fill="white"/>
<path d="M11.25 12.9375C11.5607 12.9375 11.8125 13.1893 11.8125 13.5C11.8125 13.7848 11.6009 14.0201 11.3263 14.0574L11.25 14.0625H9.75C9.66142 14.0625 9.58694 14.1243 9.56746 14.2071L9.5625 14.25V15.75C9.5625 16.0607 9.31066 16.3125 9 16.3125C8.71523 16.3125 8.47988 16.1009 8.44263 15.8263L8.4375 15.75V14.25C8.4375 13.5616 8.96803 12.9966 9.64238 12.9419L9.75 12.9375H11.25Z" fill="white"/>
<path d="M13.5 10.6875C13.8107 10.6875 14.0625 10.9393 14.0625 11.25C14.0625 11.5348 13.8509 11.7701 13.5763 11.8074L13.5 11.8125H9C8.68934 11.8125 8.4375 11.5607 8.4375 11.25C8.4375 10.9652 8.64912 10.7299 8.92367 10.6926L9 10.6875H13.5Z" fill="white"/>
<path d="M15.75 10.6875C16.0348 10.6875 16.2701 10.8991 16.3074 11.1737L16.3125 11.25V15C16.3125 15.6884 15.782 16.2534 15.1076 16.3081L15 16.3125H11.25C10.9393 16.3125 10.6875 16.0607 10.6875 15.75C10.6875 15.4652 10.8991 15.2299 11.1737 15.1926L11.25 15.1875H15C15.0886 15.1875 15.1631 15.1257 15.1825 15.0429L15.1875 15V11.25C15.1875 10.9393 15.4393 10.6875 15.75 10.6875Z" fill="white"/>
<path d="M4.5 3.93L4.57633 3.93513C4.67617 3.94868 4.76768 3.98842 4.84373 4.0472L4.90009 4.09545L4.9453 4.14877C5.00408 4.22482 5.04382 4.31633 5.05737 4.41617L5.06175 4.4805L5.06625 4.49625L5.061 4.51425L5.05737 4.56883C5.04721 4.64371 5.02231 4.7139 4.9857 4.7764L4.95525 4.82025C4.93324 4.86097 4.90939 4.89106 4.87919 4.91577L4.7839 4.9782C4.7214 5.01481 4.65121 5.03971 4.57633 5.04987L4.53375 5.05275L4.5 5.0625L4.46625 5.05275L4.42367 5.04987C4.34879 5.03971 4.2786 5.01481 4.2161 4.9782L4.17143 4.94946C4.13375 4.92881 4.10468 4.90541 4.08031 4.87537L4.0143 4.7764C3.97769 4.7139 3.95279 4.64371 3.94263 4.56883L3.939 4.51425L3.93375 4.49625L3.93825 4.4805L3.94263 4.41617C3.95618 4.31633 3.99592 4.22482 4.0547 4.14877L4.09911 4.09635L4.15627 4.0472C4.23232 3.98842 4.32383 3.94868 4.42367 3.93513L4.5 3.93Z" fill="white"/>
<path d="M13.4963 3.93375L13.5726 3.93888C13.6724 3.95243 13.7639 3.99217 13.84 4.05095L13.8963 4.0992L13.9415 4.15252C14.0003 4.22857 14.0401 4.32008 14.0536 4.41992L14.058 4.48425L14.0625 4.5L14.0573 4.518L14.0536 4.57258C14.0435 4.64746 14.0186 4.71765 13.982 4.78015L13.9515 4.824C13.9295 4.86472 13.9056 4.89481 13.8754 4.91952L13.7802 4.98195C13.7177 5.01856 13.6475 5.04346 13.5726 5.05362L13.53 5.0565L13.4963 5.06625L13.4625 5.0565L13.4199 5.05362C13.345 5.04346 13.2748 5.01856 13.2123 4.98195L13.1677 4.95321C13.13 4.93256 13.1009 4.90916 13.0766 4.87912L13.0105 4.78015C12.9739 4.71765 12.949 4.64746 12.9389 4.57258L12.9352 4.518L12.93 4.5L12.9345 4.48425L12.9389 4.41992C12.9524 4.32008 12.9922 4.22857 13.051 4.15252L13.0954 4.1001L13.1525 4.05095C13.2286 3.99217 13.3201 3.95243 13.4199 3.93888L13.4963 3.93375Z" fill="white"/>
<path d="M14.2462 8.43375L14.3226 8.43888C14.4224 8.45243 14.5139 8.49217 14.59 8.55095L14.6463 8.5992L14.6915 8.65252C14.7503 8.72857 14.7901 8.82008 14.8036 8.91992L14.808 8.98425L14.8125 9L14.8073 9.018L14.8036 9.07258C14.7935 9.14746 14.7686 9.21765 14.732 9.28015L14.7015 9.324C14.6795 9.36472 14.6556 9.39481 14.6254 9.41952L14.5302 9.48195C14.4677 9.51856 14.3975 9.54346 14.3226 9.55362L14.28 9.5565L14.2462 9.56625L14.2125 9.5565L14.1699 9.55362C14.095 9.54346 14.0248 9.51856 13.9623 9.48195L13.9177 9.45321C13.88 9.43256 13.8509 9.40916 13.8266 9.37912L13.7605 9.28015C13.7239 9.21765 13.699 9.14746 13.6889 9.07258L13.6852 9.018L13.68 9L13.6845 8.98425L13.6889 8.91992C13.7024 8.82008 13.7422 8.72857 13.801 8.65252L13.8454 8.6001L13.9025 8.55095C13.9786 8.49217 14.0701 8.45243 14.1699 8.43888L14.2462 8.43375Z" fill="white"/>
<path d="M13.4963 12.9337L13.5726 12.9389C13.6724 12.9524 13.7639 12.9922 13.84 13.051L13.8963 13.0992L13.9415 13.1525C14.0003 13.2286 14.0401 13.3201 14.0536 13.4199L14.058 13.4842L14.0625 13.5L14.0573 13.518L14.0536 13.5726C14.0435 13.6475 14.0186 13.7177 13.982 13.7802L13.9515 13.824C13.9295 13.8647 13.9056 13.8948 13.8754 13.9195L13.7802 13.982C13.7177 14.0186 13.6475 14.0435 13.5726 14.0536L13.5278 14.0565L13.4963 14.0662L13.4648 14.0565L13.4199 14.0536C13.345 14.0435 13.2748 14.0186 13.2123 13.982L13.1677 13.9532C13.13 13.9326 13.1009 13.9092 13.0766 13.8791L13.0105 13.7802C12.9739 13.7177 12.949 13.6475 12.9389 13.5726L12.9352 13.518L12.93 13.5L12.9345 13.4842L12.9389 13.4199C12.9524 13.3201 12.9922 13.2286 13.051 13.1525L13.0954 13.1001L13.1525 13.051C13.2286 12.9922 13.3201 12.9524 13.4199 12.9389L13.4963 12.9337Z" fill="white"/>
<path d="M4.50375 12.9337L4.58008 12.9389C4.67992 12.9524 4.77143 12.9922 4.84748 13.051L4.90384 13.0992L4.94905 13.1525C5.00783 13.2286 5.04757 13.3201 5.06112 13.4199L5.0655 13.4842L5.07 13.5L5.06475 13.518L5.06112 13.5726C5.05096 13.6475 5.02606 13.7177 4.98945 13.7802L4.959 13.824C4.93699 13.8647 4.91314 13.8948 4.88294 13.9195L4.78765 13.982C4.72515 14.0186 4.65496 14.0435 4.58008 14.0536L4.53525 14.0565L4.50375 14.0662L4.47225 14.0565L4.42742 14.0536C4.35254 14.0435 4.28235 14.0186 4.21985 13.982L4.17518 13.9532C4.1375 13.9326 4.10843 13.9092 4.08406 13.8791L4.01805 13.7802C3.98144 13.7177 3.95654 13.6475 3.94638 13.5726L3.94275 13.518L3.9375 13.5L3.942 13.4842L3.94638 13.4199C3.95993 13.3201 3.99967 13.2286 4.05845 13.1525L4.10286 13.1001L4.16002 13.051C4.23607 12.9922 4.32758 12.9524 4.42742 12.9389L4.50375 12.9337Z" fill="white"/>
</svg>
